<svg width="28" height="28" viewBox="0 0 28 28" fill="none" xmlns="http://www.w3.org/2000/svg">
<path d="M27.7804 24.5279L27.7806 24.5279L27.7804 24.5279ZM27.7804 24.5279L27.7804 24.5279L27.7804 24.5279ZM22.4434 19.8122C23.8557 21.2411 25.2746 22.6668 26.7 24.0891M22.4434 19.8122C22.4433 19.8122 22.4433 19.8121 22.4432 19.8121L26.7 24.0891M22.4434 19.8122C22.2755 19.6427 22.0978 19.4695 21.9167 19.2929C21.5513 18.9365 21.1719 18.5666 20.831 18.1866M22.4434 19.8122L20.831 18.1866M26.7 24.0891C19.9407 24.1036 13.113 24.1068 6.21694 24.0988H6.21636C5.81305 24.0988 5.47069 24.0637 5.12929 23.9559L5.12924 23.9559C5.02787 23.9239 4.93251 23.8954 4.84171 23.8683C4.60018 23.7961 4.39102 23.7336 4.18747 23.6405C2.78524 22.9969 1.78198 21.851 1.32737 20.3749L1.32736 20.3749C1.23086 20.0616 1.17124 19.7203 1.15103 19.3491C1.1176 18.7211 1.10252 18.0609 1.10594 17.3684L26.7 24.0891ZM20.831 18.1866C20.5537 17.8788 20.5459 17.49 20.542 17.297L20.5419 17.2893L20.5419 17.2888C20.5204 16.1818 20.5353 14.9584 20.5509 13.7207L20.5515 13.6727C20.567 12.4472 20.5826 11.2076 20.5647 10.036L20.5647 10.0358C20.5526 9.21957 20.4662 8.62048 20.3264 8.21316C19.7889 6.64974 18.7869 5.57306 17.3006 4.95028C16.7629 4.72558 16.0966 4.59298 15.549 4.59298H15.5486C12.6128 4.59089 9.55821 4.58984 6.38498 4.58984H6.38473C5.1061 4.5892 4.02865 4.95328 3.12692 5.67018C2.09677 6.4904 1.47488 7.496 1.23696 8.69825L1.23691 8.69849C1.1516 9.12851 1.10564 9.77627 1.10907 10.6606L1.10907 10.6606C1.1181 13.0057 1.11706 15.2416 1.10594 17.3683L20.831 18.1866Z" stroke="#1D3C64"/>
<path d="M7.00637 11.4594C7.01573 10.8701 7.47477 10.4825 8.05142 10.4731C8.60448 10.4641 9.14852 10.4634 9.68354 10.471C9.69661 10.4712 9.70958 10.4687 9.7217 10.4638C9.73382 10.4589 9.74484 10.4516 9.75414 10.4423C9.76343 10.4331 9.77081 10.4221 9.77584 10.41C9.78087 10.3979 9.78347 10.3849 9.78347 10.3718V6.9773C9.78347 6.96262 9.77765 6.94853 9.76731 6.93815C9.75696 6.92776 9.74293 6.92193 9.7283 6.92193C8.65757 6.9268 7.58094 6.9268 6.49841 6.92193C5.24518 6.91566 4.2428 7.45372 3.70778 8.62909C3.54262 8.99337 3.45866 9.33432 3.45588 9.65193C3.44547 10.7705 3.44131 11.9334 3.44339 13.1404C3.44339 13.2366 3.49127 13.2843 3.58703 13.2836L6.94287 13.2804C6.98381 13.2804 7.00394 13.2599 7.00324 13.2188C6.997 12.6184 6.99804 12.0319 7.00637 11.4594Z" stroke="#1D3C64" stroke-width="2"/>
<path d="M13.5412 10.466C14.3635 10.467 14.7018 10.9978 14.6966 11.7647C14.6931 12.246 14.6917 12.729 14.6924 13.2138C14.6924 13.223 14.6942 13.2321 14.6977 13.2406C14.7011 13.249 14.7062 13.2568 14.7126 13.2633C14.7189 13.2698 14.7265 13.2749 14.7348 13.2784C14.7432 13.282 14.7521 13.2838 14.7611 13.2838L18.1586 13.2806C18.2037 13.2806 18.2259 13.2583 18.2252 13.2138C18.2238 12.1383 18.2263 11.0298 18.2325 9.88824C18.2419 8.19048 16.9793 6.92944 15.318 6.92735C14.1876 6.92526 13.0648 6.92526 11.9497 6.92735C11.9025 6.92735 11.8789 6.95138 11.8789 6.99944L11.8799 10.4127C11.8799 10.4538 11.9004 10.474 11.9414 10.4733C12.4812 10.4677 13.0145 10.4653 13.5412 10.466Z" stroke="#1D3C64" stroke-width="2"/>
<path d="M7.60801 18.1117C7.20484 17.9271 7.00186 17.5855 6.99909 17.0868C6.99631 16.4794 6.99874 15.9302 7.00638 15.4392C7.00638 15.4342 7.00541 15.4294 7.00352 15.4248C7.00164 15.4202 6.99888 15.4161 6.9954 15.4126C6.99192 15.4091 6.98779 15.4063 6.98324 15.4044C6.9787 15.4025 6.97382 15.4016 6.9689 15.4016L3.54333 15.3984C3.4781 15.3984 3.44583 15.4308 3.44652 15.4956C3.45138 16.4881 3.45069 17.5493 3.44444 18.679C3.44167 19.0879 3.49336 19.4473 3.59954 19.7572C4.05128 21.0841 5.15983 21.7737 6.53797 21.7663C7.77039 21.7601 8.82724 21.7573 9.70853 21.758C9.7578 21.758 9.78244 21.7333 9.78244 21.6838L9.78452 18.2831C9.78452 18.2211 9.75364 18.1901 9.69188 18.1901C9.13812 18.1922 8.5632 18.1925 7.96712 18.1911C7.84221 18.1911 7.72251 18.1647 7.60801 18.1117Z" stroke="#1D3C64" stroke-width="2"/>
<path d="M14.6911 17.1409C14.6745 17.6957 14.2654 18.1993 13.6804 18.1888C13.0656 18.1777 12.4865 18.1784 11.9432 18.1909C11.9271 18.1912 11.9117 18.1978 11.9004 18.2093C11.8891 18.2208 11.8828 18.2364 11.8828 18.2525L11.8922 21.7024C11.8922 21.7302 11.9057 21.7442 11.9328 21.7442C14.7238 21.7783 17.7115 21.7902 20.8959 21.7797C20.9396 21.7797 20.966 21.7609 20.975 21.7233C20.9776 21.7127 20.9774 21.7016 20.9745 21.691C20.9715 21.6804 20.966 21.6706 20.9584 21.6627L14.8754 15.5466C14.7512 15.4212 14.6908 15.4473 14.6943 15.6249C14.7061 16.1571 14.705 16.6624 14.6911 17.1409Z" stroke="#4FA797" stroke-width="2"/>
<path d="M21.2031 17.8527C21.7038 18.4106 22.2659 18.9225 22.7988 19.4606C24.4615 21.1427 26.1331 22.8202 27.8138 24.4933C27.8205 24.4997 27.8251 24.5079 27.8272 24.5169C27.8294 24.5259 27.8289 24.5353 27.8258 24.544C27.8227 24.5527 27.8172 24.5603 27.8099 24.566C27.8026 24.5716 27.7939 24.575 27.7847 24.5758C27.6917 24.5835 27.6008 24.5873 27.512 24.5873C20.4873 24.6033 13.3888 24.6072 6.21636 24.5988C5.78335 24.5988 5.38573 24.5612 4.97874 24.4327C4.64774 24.3282 4.29695 24.2404 3.97948 24.0952C2.44729 23.3921 1.34602 22.1342 0.849519 20.5221C0.739879 20.1662 0.673956 19.7841 0.65175 19.376C0.617747 18.7373 0.602481 18.0672 0.605951 17.3658C0.617053 15.2407 0.618094 13.0063 0.609073 10.6625C0.605604 9.76751 0.651403 9.08039 0.746471 8.60119C1.00878 7.27572 1.69854 6.16825 2.81576 5.2788C3.81363 4.48547 5.00337 4.08915 6.38498 4.08984C9.55832 4.08984 12.613 4.09089 15.549 4.09298C16.1642 4.09298 16.8959 4.23925 17.4934 4.48895C19.1144 5.16805 20.2164 6.35527 20.7993 8.05059C20.9637 8.52979 21.0522 9.18905 21.0647 10.0284C21.1011 12.4188 20.9991 15.084 21.0418 17.2791C21.0459 17.4839 21.0605 17.6949 21.2031 17.8527ZM17.3487 5.20044C16.7415 4.92323 16.007 4.78462 15.1451 4.78462C12.5096 4.78532 9.94379 4.78601 7.44774 4.78671C6.49497 4.78671 5.93671 4.79577 5.77294 4.81387C5.19629 4.87726 4.65398 5.03397 4.14603 5.28402C2.8234 5.93527 1.94766 6.98805 1.51881 8.44238C1.39252 8.87004 1.32798 9.20751 1.32521 9.45477C1.30092 11.6335 1.29918 14.5777 1.32 18.2873C1.32417 19.1398 1.37829 19.7563 1.48238 20.1366C1.97993 21.9639 3.43822 23.3984 5.27435 23.7598C5.75455 23.8539 6.4405 23.9002 7.3322 23.8988C13.5817 23.8863 19.8371 23.8859 26.0984 23.8978C26.1741 23.8985 26.1852 23.8716 26.1318 23.8173L20.487 18.1682C20.401 18.0819 20.3527 17.965 20.3527 17.8433C20.3541 15.2167 20.3562 12.5943 20.359 9.97611C20.3597 9.48089 20.3132 9.04522 20.2195 8.6691C19.8163 7.04691 18.8594 5.89069 17.3487 5.20044Z" fill="#1D3C64"/>
<path d="M17.3488 5.20098C18.8595 5.89123 19.8164 7.04745 20.2196 8.66963C20.3132 9.04575 20.3597 9.48142 20.359 9.97665C20.3563 12.5949 20.3542 15.2172 20.3528 17.8438C20.3528 17.9655 20.4011 18.0824 20.4871 18.1687L26.1318 23.8178C26.1853 23.8722 26.1742 23.899 26.0985 23.8983C19.8372 23.8864 13.5818 23.8868 7.33227 23.8993C6.44057 23.9007 5.75462 23.8544 5.27443 23.7604C3.43829 23.3989 1.98 21.9644 1.48246 20.1371C1.37837 19.7568 1.32424 19.1404 1.32008 18.2878C1.29926 14.5782 1.30099 11.634 1.32528 9.45531C1.32806 9.20804 1.39259 8.87058 1.51889 8.44292C1.94773 6.98859 2.82347 5.9358 4.1461 5.28456C4.65405 5.03451 5.19636 4.87779 5.77301 4.81441C5.93678 4.7963 6.49505 4.78725 7.44781 4.78725C9.94387 4.78655 12.5097 4.78585 15.1452 4.78516C16.0071 4.78516 16.7416 4.92376 17.3488 5.20098ZM7.00647 11.4602C7.01584 10.871 7.47487 10.4834 8.05153 10.474C8.60459 10.4649 9.14863 10.4642 9.68364 10.4719C9.69672 10.472 9.70969 10.4695 9.72181 10.4646C9.73392 10.4597 9.74495 10.4524 9.75424 10.4432C9.76353 10.4339 9.77091 10.423 9.77594 10.4108C9.78098 10.3987 9.78357 10.3857 9.78357 10.3726V6.97814C9.78357 6.96346 9.77776 6.94937 9.76741 6.93899C9.75707 6.9286 9.74303 6.92277 9.7284 6.92277C8.65767 6.92764 7.58104 6.92764 6.49852 6.92277C5.24528 6.9165 4.2429 7.45456 3.70788 8.62993C3.54273 8.99421 3.45876 9.33516 3.45599 9.65277C3.44558 10.7714 3.44141 11.9342 3.4435 13.1413C3.4435 13.2374 3.49138 13.2851 3.58714 13.2844L6.94298 13.2813C6.98392 13.2813 7.00404 13.2607 7.00335 13.2196C6.9971 12.6192 6.99814 12.0328 7.00647 11.4602ZM13.5412 10.4656C14.3635 10.4666 14.7018 10.9974 14.6966 11.7643C14.6931 12.2456 14.6917 12.7286 14.6924 13.2134C14.6924 13.2226 14.6942 13.2317 14.6976 13.2402C14.7011 13.2486 14.7062 13.2564 14.7125 13.2629C14.7189 13.2694 14.7265 13.2745 14.7348 13.278C14.7432 13.2816 14.7521 13.2834 14.7611 13.2834L18.1586 13.2802C18.2037 13.2802 18.2259 13.2579 18.2252 13.2134C18.2238 12.1379 18.2262 11.0294 18.2325 9.88784C18.2419 8.19008 16.9793 6.92904 15.318 6.92695C14.1876 6.92486 13.0648 6.92486 11.9497 6.92695C11.9025 6.92695 11.8789 6.95098 11.8789 6.99904L11.8799 10.4123C11.8799 10.4534 11.9004 10.4736 11.9413 10.4729C12.4812 10.4673 13.0145 10.4649 13.5412 10.4656ZM7.60811 18.1113C7.20493 17.9267 7.00196 17.5851 6.99918 17.0863C6.99641 16.479 6.99884 15.9298 7.00647 15.4387C7.00647 15.4338 7.0055 15.4289 7.00362 15.4243C7.00174 15.4198 6.99897 15.4156 6.99549 15.4121C6.99202 15.4087 6.98788 15.4059 6.98334 15.404C6.97879 15.4021 6.97392 15.4011 6.969 15.4011L3.54342 15.398C3.47819 15.398 3.44593 15.4304 3.44662 15.4952C3.45148 16.4877 3.45078 17.5488 3.44454 18.6786C3.44176 19.0874 3.49346 19.4468 3.59963 19.7568C4.05138 21.0837 5.15993 21.7732 6.53807 21.7659C7.77049 21.7596 8.82734 21.7568 9.70863 21.7575C9.75789 21.7575 9.78253 21.7328 9.78253 21.6834L9.78461 18.2826C9.78461 18.2206 9.75373 18.1896 9.69197 18.1896C9.13822 18.1917 8.5633 18.1921 7.96721 18.1907C7.84231 18.1907 7.7226 18.1642 7.60811 18.1113ZM14.6914 17.1407C14.6747 17.6955 14.2657 18.199 13.6807 18.1886C13.0658 18.1774 12.4868 18.1781 11.9434 18.1907C11.9273 18.191 11.912 18.1976 11.9007 18.2091C11.8894 18.2206 11.883 18.2362 11.883 18.2523L11.8924 21.7022C11.8924 21.73 11.9059 21.744 11.933 21.744C14.724 21.7781 17.7117 21.7899 20.8961 21.7795C20.9399 21.7795 20.9662 21.7607 20.9752 21.7231C20.9778 21.7125 20.9776 21.7013 20.9747 21.6907C20.9718 21.6802 20.9662 21.6704 20.9586 21.6625L14.8756 15.5464C14.7514 15.421 14.691 15.4471 14.6945 15.6247C14.7063 16.1568 14.7053 16.6622 14.6914 17.1407Z" fill="white"/>
<path d="M8.05142 10.4731C7.47477 10.4825 7.01573 10.8701 7.00637 11.4594C6.99804 12.0319 6.997 12.6184 7.00324 13.2188C7.00394 13.2599 6.98381 13.2804 6.94287 13.2804L3.58703 13.2836C3.49127 13.2843 3.44339 13.2366 3.44339 13.1404C3.44131 11.9334 3.44547 10.7705 3.45588 9.65193C3.45866 9.33432 3.54262 8.99337 3.70778 8.62909C4.2428 7.45372 5.24518 6.91566 6.49841 6.92193C7.58094 6.9268 8.65757 6.9268 9.7283 6.92193C9.74293 6.92193 9.75696 6.92776 9.76731 6.93815C9.77765 6.94853 9.78347 6.96262 9.78347 6.9773V10.3718C9.78347 10.3849 9.78087 10.3979 9.77584 10.41C9.77081 10.4221 9.76343 10.4331 9.75414 10.4423C9.74484 10.4516 9.73382 10.4589 9.7217 10.4638C9.70958 10.4687 9.69661 10.4712 9.68354 10.471C9.14852 10.4634 8.60448 10.4641 8.05142 10.4731Z" fill="#1D3C64"/>
<path d="M14.6966 11.7647C14.7018 10.9978 14.3635 10.467 13.5412 10.466C13.0145 10.4653 12.4812 10.4677 11.9414 10.4733C11.9004 10.474 11.8799 10.4538 11.8799 10.4127L11.8789 6.99944C11.8789 6.95138 11.9025 6.92735 11.9497 6.92735C13.0648 6.92526 14.1876 6.92526 15.318 6.92735C16.9793 6.92944 18.2419 8.19048 18.2325 9.88824C18.2263 11.0298 18.2238 12.1383 18.2252 13.2138C18.2259 13.2583 18.2037 13.2806 18.1586 13.2806L14.7611 13.2838C14.7521 13.2838 14.7432 13.282 14.7348 13.2784C14.7265 13.2749 14.7189 13.2698 14.7126 13.2633C14.7062 13.2568 14.7011 13.249 14.6977 13.2406C14.6942 13.2321 14.6924 13.223 14.6924 13.2138C14.6917 12.729 14.6931 12.246 14.6966 11.7647Z" fill="#1D3C64"/>
<path d="M7.60801 18.1117C7.72251 18.1647 7.84221 18.1911 7.96712 18.1911C8.5632 18.1925 9.13812 18.1922 9.69188 18.1901C9.75364 18.1901 9.78452 18.2211 9.78452 18.2831L9.78243 21.6838C9.78243 21.7333 9.7578 21.758 9.70853 21.758C8.82724 21.7573 7.77039 21.7601 6.53797 21.7663C5.15983 21.7737 4.05128 21.0841 3.59954 19.7572C3.49336 19.4473 3.44167 19.0879 3.44444 18.679C3.45069 17.5493 3.45138 16.4881 3.44652 15.4956C3.44583 15.4308 3.4781 15.3984 3.54333 15.3984L6.9689 15.4016C6.97382 15.4016 6.9787 15.4025 6.98324 15.4044C6.98779 15.4063 6.99192 15.4091 6.9954 15.4126C6.99888 15.4161 7.00164 15.4202 7.00352 15.4248C7.00541 15.4294 7.00637 15.4342 7.00637 15.4392C6.99874 15.9302 6.99631 16.4794 6.99909 17.0868C7.00186 17.5855 7.20484 17.9271 7.60801 18.1117Z" fill="#1D3C64"/>
<path d="M13.6804 18.1888C14.2654 18.1993 14.6745 17.6957 14.6911 17.1409C14.705 16.6624 14.7061 16.1571 14.6943 15.6249C14.6908 15.4473 14.7512 15.4212 14.8754 15.5466L20.9584 21.6627C20.966 21.6706 20.9715 21.6804 20.9745 21.691C20.9774 21.7016 20.9776 21.7127 20.975 21.7233C20.966 21.7609 20.9396 21.7797 20.8959 21.7797C17.7115 21.7902 14.7238 21.7783 11.9328 21.7442C11.9057 21.7442 11.8922 21.7302 11.8922 21.7024L11.8828 18.2525C11.8828 18.2364 11.8891 18.2208 11.9004 18.2093C11.9117 18.1978 11.9271 18.1912 11.9432 18.1909C12.4865 18.1784 13.0656 18.1777 13.6804 18.1888Z" fill="#4FA797"/>
</svg>
